<?xml version="1.0" encoding="utf-8"?>
<!-- Generator: Adobe Illustrator 27.5.0, SVG Export Plug-In . SVG Version: 6.00 Build 0)  -->
<svg version="1.1" xmlns="http://www.w3.org/2000/svg" xmlns:xlink="http://www.w3.org/1999/xlink" x="0px" y="0px"
	 viewBox="0 0 500 500" style="enable-background:new 0 0 500 500;" xml:space="preserve">
<g id="BACKGROUND">
	<rect style="fill:#FFFFFF;" width="500" height="500"/>
</g>
<g id="OBJECTS">
	<g>
		<path style="fill:#BEDBFF;" d="M46.243,335.942c-31.793-41.312-30.641-98.601-7.98-143.827
			c42.77-85.357,136.635-155.75,236.025-145.835c0.654,0.068,1.309,0.136,1.963,0.205c35.047,3.876,68.608,17.115,98.604,35.345
			c17.477,10.621,33.922,22.934,49.263,36.452c56.693,49.953,64.776,137.098,41.805,205.346
			c-8.048,23.911-22.238,40.879-36.013,61.156c-6.836,10.063-317.4,13.832-318.382,13.389c-6.366-2.872-12.821-11.505-17.9-16.142
			c-10.717-9.783-21.409-19.594-32.097-29.408C55.955,347.504,50.84,341.915,46.243,335.942z"/>
		<polyline style="fill:#A9C8EA;" points="126.584,340.912 126.584,269.109 139.239,269.109 139.239,309.586 184.189,309.586 
			184.189,346.253 216.488,346.253 216.488,287.154 246.377,287.154 246.377,382.042 130.153,382.042 		"/>
		<path style="fill:#A9C8EA;" d="M465.557,324.686h-6.938V278.77h-11.51v45.101l-19.364,6.076v46.08h9.184
			C444.821,366.246,456.943,349.761,465.557,324.686z"/>
		<polygon style="fill:#A9C8EA;" points="386.555,376.824 386.555,238.24 342.723,238.24 342.723,303.428 334.548,303.428 
			334.548,278.583 320.335,278.583 320.335,292.927 287.41,292.927 287.41,376.824 		"/>
		<g>
			<g>
				<path style="fill:#A9C8EA;" d="M419.18,207.385v-2.444h-4.921l-0.393-1.151h-2.593v-0.184c0-0.834-0.676-1.51-1.51-1.51
					c-0.834,0-1.51,0.676-1.51,1.51v0.184h-2.638l-0.393,1.151h-4.921v2.444h2.075l4.832,14.151h-0.632v2.444h2.403l-0.539,156.347
					h2.6l-0.539-156.347h2.403v-2.444h-0.632l4.832-14.151H419.18z M411.619,207.385l-0.544,4.182
					c-1.417-1.092-3.565-0.201-3.74,2.791c-0.257,4.383,1.545,5.473,1.545,5.473v1.5h-1.062l-3.694-13.947H411.619z
					 M411.734,221.331h-1.233l0.236-1.369c0.526-0.564,1.743-2.245,1.568-5.604c-0.032-0.604-0.156-1.115-0.334-1.552l0.934-5.422
					h2.914L411.734,221.331z"/>
			</g>
		</g>
		<g>
			<g>
				<path style="fill:#A9C8EA;" d="M126.584,209.1v-2.444h-4.921l-0.393-1.151h-2.593v-0.184c0-0.834-0.676-1.509-1.51-1.509
					c-0.834,0-1.51,0.676-1.51,1.509v0.184h-2.638l-0.393,1.151h-4.921v2.444h2.075l4.832,14.151h-0.632v2.444h2.403l-0.539,156.347
					h2.6l-0.539-156.347h2.403v-2.444h-0.632l4.832-14.151H126.584z M119.023,209.1l-0.545,4.182
					c-1.417-1.092-3.565-0.201-3.74,2.791c-0.257,4.383,1.545,5.473,1.545,5.473v1.5h-1.062l-3.694-13.947H119.023z
					 M119.139,223.047h-1.233l0.236-1.369c0.526-0.564,1.743-2.245,1.568-5.604c-0.032-0.604-0.156-1.115-0.334-1.552l0.934-5.422
					h2.914L119.139,223.047z"/>
			</g>
		</g>
		<path style="fill:#7B9706;" d="M53.421,381.351c0,0-27.534-20.838-23.314-22.067c4.22-1.229,10.687,1.978,10.687,1.978
			s-19.127-16.082-15.434-20.194c3.692-4.112,8.967,3.372,8.967,3.372s-5.275-20.006-0.527-25.086c4.747-5.08,15.588,0,15.588,0
			s0.4-6.544,2.428-9.768c2.028-3.224,11.599,9.768,11.599,9.768s9.941-21.431,15.218-21.431c5.277,0,0.243,21.431,0.243,21.431
			s32.73-9.873,36.288-5.103c3.558,4.77,1.98,25.385,1.98,25.385s13.223-10.176,16.368-8.538c3.144,1.638-1.806,15.155-1.806,15.155
			s6.533-2.654,8.643-0.701c2.11,1.953-3.165,9.752-3.165,9.752s13.838-10.985,15.095-6.227
			c1.257,4.758-12.458,19.498-12.458,19.498s11.364-5.246,12.539-3.136c1.175,2.11-16.622,14.978-28.022,17.429
			C112.938,385.32,53.421,381.351,53.421,381.351z"/>
		<path style="fill:#B8CD4A;" d="M45.074,313.863c0.779-1.024,2.409-0.737,3.521-0.09c1.809,1.052,6.944,7.967,2.531,8.228
			C48.423,322.16,43.214,316.307,45.074,313.863z"/>
		<path style="fill:#B8CD4A;" d="M61.985,320.473c-0.89-1.515-1.385-3.259-1.422-5.016c-0.012-0.582,0.068-1.25,0.545-1.585
			c0.759-0.534,1.753,0.189,2.385,0.869c0.755,0.811,1.516,1.652,1.947,2.672c0.432,1.021,0.479,2.271-0.155,3.18
			c-0.634,0.909-2.058,1.263-2.901,0.544"/>
		<path style="fill:#B8CD4A;" d="M113.143,343.472c0.795,0.907,2.228,1.019,3.341,0.557c1.114-0.463,1.967-1.384,2.718-2.327
			c1.699-2.133,9.982-17.589,1.665-15.203C116.311,327.806,109.556,339.383,113.143,343.472z"/>
		<path style="fill:#B8CD4A;" d="M130.283,338.984c0.971-0.104,2.049-0.094,2.798,0.533c0.999,0.835,0.969,2.417,0.454,3.612
			c-0.926,2.148-3.199,3.644-5.538,3.645c-2.201,0.001-5.307-1.533-4.805-4.164C123.718,339.856,128.042,339.223,130.283,338.984z"
			/>
		<path style="fill:#B8CD4A;" d="M36.324,353.845c-0.797-0.25-1.729-0.433-2.417,0.04c-1.002,0.689-0.797,2.223-0.327,3.344
			c1.275,3.044,3.707,5.586,6.692,6.993c0.821,0.387,1.795,0.688,2.616,0.301c2.284-1.076,1.305-5.428,0.145-7.026
			C41.654,355.596,38.443,354.51,36.324,353.845z"/>
		<path style="fill:#B8CD4A;" d="M96.883,318.104c-0.234,1.145-0.227,2.514,0.663,3.271c1.064,0.905,2.72,0.392,3.869-0.403
			c2.494-1.723,4.139-4.618,4.344-7.643c0.245-3.622-2.302-4.225-4.703-2.123C98.974,313.03,97.444,315.365,96.883,318.104z"/>
		<path style="fill:#7B9706;" d="M413.379,381.351c0,0,27.534-20.838,23.314-22.067c-4.22-1.229-10.687,1.978-10.687,1.978
			s19.126-16.082,15.434-20.194c-3.692-4.112-8.967,3.372-8.967,3.372s5.275-20.006,0.527-25.086c-4.747-5.08-15.588,0-15.588,0
			s-0.4-6.544-2.428-9.768c-2.028-3.224-11.599,9.768-11.599,9.768s-9.941-21.431-15.218-21.431c-5.277,0-0.244,21.431-0.244,21.431
			s-32.73-9.873-36.288-5.103c-3.558,4.77-1.98,25.385-1.98,25.385s-13.223-10.176-16.368-8.538
			c-3.144,1.638,1.806,15.155,1.806,15.155s-6.533-2.654-8.643-0.701c-2.11,1.953,3.165,9.752,3.165,9.752
			s-13.838-10.985-15.095-6.227c-1.257,4.758,12.458,19.498,12.458,19.498s-11.364-5.246-12.539-3.136
			c-1.175,2.11,16.622,14.978,28.022,17.429C353.863,385.32,413.379,381.351,413.379,381.351z"/>
		<path style="fill:#B8CD4A;" d="M340.081,338.93c0.275,0.368,0.577,0.73,0.974,0.962c0.396,0.232,0.906,0.316,1.318,0.113
			c0.554-0.274,0.764-0.95,0.854-1.562c0.33-2.251-0.212-4.538-0.93-6.697c-0.668-2.012-3.798-4.634-4.727-1.385
			C336.805,333.039,338.531,336.85,340.081,338.93z"/>
		<path style="fill:#B8CD4A;" d="M355.231,342.766c0.004-0.821-0.115-1.641-0.349-2.428c-0.219-0.739-0.538-1.448-0.95-2.099
			c-0.402-0.637-1.105-1.286-1.812-1.027c-2.206,0.809-2.007,4.371-1.221,6.045C351.976,345.55,355.215,346.026,355.231,342.766z"/>
		<path style="fill:#B8CD4A;" d="M372.25,318.989c0.749,0.034,1.583-0.101,2.055-0.683c0.634-0.781,0.319-1.948-0.142-2.842
			c-1.045-2.025-8.276-9.176-10.256-5.033C362.018,314.385,369.215,318.85,372.25,318.989z"/>
		<path style="fill:#B8CD4A;" d="M400.955,318.091c0.17,1.111,0.699,2.321,1.77,2.662c0.698,0.223,1.484,0.005,2.073-0.431
			c0.589-0.436,1.005-1.067,1.333-1.723c1.104-2.207,2.195-9.455-2.146-8.772C400.913,310.309,400.599,315.767,400.955,318.091z"/>
		<path style="fill:#B8CD4A;" d="M429.54,347.227c-0.009,0.644,0.047,1.37,0.536,1.788c0.447,0.383,1.136,0.367,1.665,0.109
			c0.529-0.258,0.931-0.715,1.3-1.175c2.744-3.42,5.452-8.961,4.919-13.502c-0.237-2.02-1.841-1.927-3.276-0.88
			c-1.725,1.259-2.77,3.728-3.535,5.651C430.135,341.761,429.577,344.489,429.54,347.227z"/>
		<path style="fill:#B8CD4A;" d="M413.328,362.831c-0.267,0.736-0.435,1.635,0.061,2.24c0.329,0.4,0.885,0.561,1.401,0.518
			c0.516-0.043,1.001-0.262,1.455-0.511c1.536-0.843,7.258-6.056,4.472-7.812C417.605,355.304,414.09,360.736,413.328,362.831z"/>
		<path style="fill:#B8CD4A;" d="M429.644,365.376c1.43-0.972,3.452-1.49,4.832-0.448c1.104,0.834,1.4,2.424,1.077,3.769
			c-0.652,2.717-3.293,4.493-5.929,5.419c-0.747,0.262-1.525,0.481-2.316,0.463c-0.792-0.018-1.606-0.3-2.123-0.9
			C422.459,370.512,427.519,366.82,429.644,365.376z"/>
		<g>
			<g>
				<path style="fill:#98B23B;" d="M452.521,375.84c0,0-71.543,86.429-199.258,86.429c-136.331,0-214.482-86.429-214.482-86.429
					H452.521z"/>
				<path style="fill:#B8CD4A;" d="M450.319,376.84H41.117c1.856,1.895,5.317,5.298,10.301,9.679l397.122-7.739
					C449.248,378.022,449.844,377.37,450.319,376.84z"/>
				<path style="fill:#B8CD4A;" d="M427.746,398.172l-362.738-0.507c5.421,4.168,11.685,8.668,18.735,13.272l339.552-9.164
					C424.832,400.554,426.329,399.347,427.746,398.172z"/>
				<path style="fill:#B8CD4A;" d="M129.691,435.633c11.815,5.119,24.977,9.952,39.383,14.016l149.803,3.586
					c26.943-6.718,49.692-16.787,67.678-26.844L129.691,435.633z"/>
			</g>
		</g>
		<g>
			<g>
				<path style="fill:#453248;" d="M416.06,377.275c-0.426,0-0.862-0.063-1.286-0.195c-0.993-0.305-1.936-0.935-2.883-1.926
					c-2.998-3.147-4.33-7.977-3.657-13.255c0.592-4.643,2.521-8.922,4.386-13.061c0.15-0.329,0.537-0.472,0.859-0.326
					c0.327,0.147,0.473,0.533,0.326,0.859c-1.826,4.052-3.714,8.243-4.282,12.693c-0.624,4.887,0.581,9.332,3.308,12.193
					c0.789,0.826,1.549,1.344,2.323,1.582c0.889,0.274,1.813,0.141,2.411-0.349c0.599-0.488,0.804-1.42,0.439-1.991
					c-0.171-0.27-0.525-0.454-0.901-0.47c-0.145-0.013-0.516,0.009-0.73,0.289c-0.218,0.285-0.625,0.34-0.911,0.124
					c-0.286-0.217-0.341-0.624-0.124-0.911c0.411-0.541,1.099-0.827,1.817-0.802c0.801,0.033,1.545,0.443,1.945,1.07
					c0.721,1.128,0.401,2.786-0.713,3.696C417.761,377.007,416.931,377.275,416.06,377.275z"/>
			</g>
			<g>
				<path style="fill:#453248;" d="M410.697,355.698h-25.518c-0.359,0-0.65-0.291-0.65-0.65c0-0.359,0.29-0.65,0.65-0.65h25.518
					c0.359,0,0.65,0.291,0.65,0.65C411.346,355.407,411.056,355.698,410.697,355.698z"/>
			</g>
			<g>
				<path style="fill:#453248;" d="M362.055,377.275c-0.426,0-0.86-0.063-1.286-0.195c-0.993-0.305-1.936-0.935-2.883-1.926
					c-2.998-3.147-4.33-7.977-3.657-13.255c0.593-4.643,2.521-8.922,4.386-13.061c0.148-0.329,0.537-0.472,0.859-0.326
					c0.327,0.147,0.473,0.533,0.326,0.859c-1.826,4.052-3.714,8.243-4.282,12.693c-0.624,4.887,0.581,9.332,3.308,12.193
					c0.789,0.826,1.549,1.344,2.323,1.582c0.889,0.27,1.813,0.141,2.411-0.349c0.6-0.488,0.806-1.42,0.44-1.992
					c-0.171-0.269-0.527-0.454-0.903-0.469c-0.142,0.003-0.516,0.011-0.728,0.29c-0.218,0.285-0.626,0.34-0.911,0.124
					c-0.285-0.217-0.341-0.624-0.124-0.911c0.41-0.541,1.08-0.827,1.817-0.802c0.799,0.033,1.545,0.443,1.945,1.068
					c0.721,1.13,0.401,2.789-0.713,3.698C363.757,377.006,362.927,377.275,362.055,377.275z"/>
			</g>
			<g>
				<path style="fill:#453248;" d="M332.74,377.242c-0.457,0-0.927-0.1-1.378-0.305c-1.075-0.486-1.731-1.45-1.713-2.515
					c0.019-1.029,0.7-2.011,1.658-2.387c0.334-0.129,0.711,0.033,0.842,0.368c0.131,0.334-0.034,0.71-0.368,0.842
					c-0.473,0.185-0.825,0.69-0.834,1.199c-0.014,0.809,0.723,1.207,0.95,1.309c0.547,0.249,1.327,0.293,1.833-0.166
					c0.797-0.723,0.854-2.038,0.641-3.027c-0.14-0.652-0.377-1.283-0.628-1.949c-0.211-0.558-0.429-1.135-0.589-1.738
					c-0.982-3.706,0.6-7.968,3.764-10.134c3.162-2.166,7.709-2.102,10.809,0.156c0.29,0.211,0.354,0.618,0.143,0.907
					c-0.212,0.292-0.618,0.354-0.907,0.143c-2.671-1.944-6.588-2-9.312-0.136c-2.725,1.866-4.088,5.538-3.242,8.73
					c0.142,0.538,0.34,1.059,0.548,1.613c0.258,0.681,0.524,1.387,0.684,2.135c0.373,1.738-0.015,3.332-1.039,4.261
					C334.104,377.006,333.44,377.242,332.74,377.242z"/>
			</g>
			<g>
				<path style="fill:#453248;" d="M382.646,378.405c-0.455,0-0.926-0.099-1.377-0.303c-1.075-0.487-1.731-1.45-1.713-2.515
					c0.019-1.03,0.7-2.012,1.658-2.388c0.331-0.131,0.709,0.034,0.842,0.368c0.131,0.334-0.034,0.711-0.368,0.842
					c-0.473,0.185-0.825,0.69-0.833,1.2c-0.014,0.808,0.723,1.205,0.95,1.308c0.548,0.247,1.327,0.292,1.833-0.166
					c0.794-0.723,0.853-2.038,0.641-3.027c-0.14-0.652-0.377-1.283-0.628-1.949c-0.211-0.558-0.429-1.136-0.589-1.738
					c-0.982-3.706,0.6-7.968,3.764-10.134c3.162-2.166,7.708-2.101,10.809,0.157c0.29,0.212,0.354,0.618,0.143,0.907
					c-0.211,0.291-0.618,0.354-0.907,0.143c-2.671-1.945-6.586-2.002-9.312-0.136c-2.725,1.865-4.088,5.537-3.242,8.729
					c0.142,0.538,0.34,1.059,0.548,1.613c0.258,0.681,0.524,1.387,0.684,2.135c0.37,1.74-0.018,3.332-1.039,4.26
					C384.012,378.169,383.347,378.405,382.646,378.405z"/>
			</g>
			<g>
				<g>
					<path style="fill:#AC6E00;" d="M396.029,361.569h2.913c0,0-0.514-6.971,4.112-9.909c4.626-2.939,15.762,1.687,19.017-0.883
						c3.255-2.57,0.514-20.562,1.371-21.16c0.857-0.598,2.399-1.455,2.399-1.455l-0.01-3.337l-12.338-0.898
						c0,0-25.343,28.221-24.658,28.735C389.519,353.176,396.029,361.569,396.029,361.569z"/>
				</g>
				<g>
					<g>
						<path style="fill:#C1872B;" d="M403.568,348.616c9.252-3.835,15.762,1.99,18.161-2.122c2.399-4.112-2.398-17.982,0.685-20.813
							c0.362-0.332,1.573-0.616,3.416-0.857l0.01-0.101c-1.713-1.211-65.789-1.872-68.873,0.958
							c-3.084,2.83,1.713,16.701-0.685,20.813c-2.399,4.112-8.909-1.713-18.161,2.122c-9.252,3.835-7.538,12.953-7.538,12.953
							h65.447C396.029,361.569,394.316,352.451,403.568,348.616z"/>
					</g>
				</g>
				<g>
					<g>
						<path style="fill:#C1872B;" d="M421.728,346.494c0.311-0.534,0.497-1.237,0.599-2.054l-65.511,0.368
							c-0.063,0.374-0.151,0.714-0.257,1.03l65.039,0.827C421.64,346.603,421.69,346.56,421.728,346.494z"/>
					</g>
					<g>
						<path style="fill:#AC6E00;" d="M399.747,350.976l-67.418,2.266c-0.354,0.547-0.638,1.101-0.874,1.651l65.399,0.155
							C397.429,353.661,398.327,352.237,399.747,350.976z"/>
					</g>
					<g>
						<path style="fill:#C1872B;" d="M396.855,355.048l-65.399-0.155c-1.473,3.432-0.873,6.676-0.873,6.676h65.447
							C396.029,361.569,395.459,358.422,396.855,355.048z"/>
					</g>
					<g>
						<path style="fill:#AC6E00;" d="M421.599,346.665l-65.039-0.827c-0.072,0.215-0.155,0.415-0.252,0.595l47.304,2.167
							C412.689,344.863,419.113,350.392,421.599,346.665z"/>
					</g>
					<g>
						<path style="fill:#C1872B;" d="M356.416,336.086l65.582,1.114c-0.244-2.095-0.521-4.226-0.62-6.101l-65.375,1.024
							C356.103,333.388,356.255,334.728,356.416,336.086z"/>
					</g>
					<g>
						<path style="fill:#AC6E00;" d="M421.563,327.398l-65.652,1.716c-0.035,0.908,0.007,1.927,0.092,3.008l65.375-1.024
							C421.302,329.67,421.337,328.4,421.563,327.398z"/>
					</g>
					<g>
						<path style="fill:#AC6E00;" d="M356.611,337.758l65.757,3.31c-0.073-1.224-0.215-2.539-0.37-3.868l-65.582-1.114
							C356.482,336.644,356.548,337.203,356.611,337.758z"/>
					</g>
				</g>
			</g>
			<g>
				<path style="fill:#453248;" d="M385.179,375.108c-0.104,0-0.209-0.025-0.307-0.077c-0.316-0.17-0.435-0.563-0.265-0.879
					c1.217-2.266,3.856-3.649,6.41-3.372c1.059,0.116,2.036,0.486,2.982,0.844c0.393,0.15,0.787,0.298,1.184,0.427
					c1.514,0.492,2.715,0.486,3.582-0.014c0.114-0.067,0.223-0.15,0.323-0.246c-0.02-0.03-0.041-0.06-0.06-0.09
					c-0.575-0.925-0.598-2.359,0.359-3.16c0.247-0.208,0.613-0.203,0.853,0.015c0.576,0.521,0.844,1.275,0.754,2.125
					c-0.034,0.325-0.122,0.645-0.251,0.947c0.35,0.238,0.752,0.396,1.087,0.497c2.39,0.713,5.226-0.201,6.746-2.175
					c0.219-0.282,0.625-0.335,0.912-0.118c0.284,0.22,0.336,0.628,0.118,0.912c-1.869,2.422-5.215,3.503-8.149,2.624
					c-0.561-0.167-1.043-0.389-1.446-0.664c-0.181,0.178-0.381,0.334-0.596,0.457c-1.198,0.695-2.756,0.736-4.632,0.126
					c-0.418-0.136-0.83-0.292-1.242-0.448c-0.91-0.344-1.769-0.67-2.664-0.768c-2.043-0.222-4.15,0.884-5.123,2.695
					C385.634,374.983,385.41,375.108,385.179,375.108z"/>
			</g>
			<g>
				<path style="fill:#453248;" d="M355.089,374.603c-0.851,0-1.766-0.22-2.677-0.656c-0.867-0.417-1.643-0.968-2.394-1.5
					c-0.424-0.301-0.846-0.601-1.285-0.875c-1.358-0.853-2.57-1.195-3.607-1.007c-0.565,0.1-1.119,0.434-1.49,0.887
					c0.373,0.193,0.775,0.481,1.02,0.936c0.212,0.396,0.246,0.886,0.09,1.311c-0.136,0.37-0.4,0.65-0.745,0.785
					c-0.363,0.143-0.761,0.112-1.119-0.085c-0.461-0.254-0.826-0.776-0.932-1.332c-0.055-0.282-0.062-0.57-0.024-0.856
					c-2.213-0.547-4.674,0.132-6.259,1.776c-0.25,0.26-0.661,0.265-0.919,0.018c-0.259-0.249-0.266-0.661-0.018-0.919
					c1.935-2.007,4.97-2.813,7.644-2.101c0.025-0.041,0.052-0.08,0.08-0.121c0.561-0.816,1.474-1.407,2.442-1.578
					c1.364-0.24,2.884,0.156,4.526,1.185c0.459,0.288,0.903,0.601,1.346,0.916c0.74,0.525,1.438,1.02,2.206,1.388
					c1.307,0.631,2.63,0.698,3.541,0.181c0.311-0.175,0.708-0.067,0.886,0.246c0.176,0.313,0.066,0.709-0.246,0.886
					C356.545,374.431,355.841,374.603,355.089,374.603z M343.208,372.702c0.004,0.039,0.01,0.08,0.018,0.119
					c0.048,0.254,0.245,0.44,0.313,0.452c0.003-0.024,0.027-0.17-0.028-0.271C343.454,372.895,343.355,372.797,343.208,372.702z"/>
			</g>
			<g>
				<path style="fill:#453248;" d="M383.636,366.489c-0.003,0-0.006,0-0.009,0c-5.032-0.069-49.182-0.675-50.062-0.804
					c-0.355-0.053-0.601-0.383-0.549-0.737c0.052-0.353,0.367-0.599,0.727-0.551c1.09,0.103,33.107,0.563,49.902,0.793
					c0.359,0.005,0.646,0.299,0.641,0.659C384.281,366.203,383.991,366.489,383.636,366.489z"/>
			</g>
		</g>
		<g>
			<g>
				<path style="fill:#453248;" d="M47.102,377.275c0.426,0,0.861-0.063,1.286-0.195c0.993-0.305,1.936-0.935,2.883-1.926
					c2.998-3.147,4.33-7.977,3.657-13.255c-0.593-4.643-2.521-8.922-4.386-13.061c-0.15-0.329-0.537-0.472-0.859-0.326
					c-0.327,0.147-0.473,0.533-0.326,0.859c1.826,4.052,3.714,8.243,4.282,12.693c0.624,4.887-0.581,9.332-3.308,12.193
					c-0.789,0.826-1.549,1.344-2.323,1.582c-0.889,0.274-1.813,0.141-2.411-0.349c-0.599-0.488-0.804-1.42-0.439-1.991
					c0.171-0.27,0.525-0.454,0.901-0.47c0.145-0.013,0.516,0.009,0.73,0.289c0.218,0.285,0.625,0.34,0.911,0.124
					c0.285-0.217,0.341-0.624,0.124-0.911c-0.411-0.541-1.099-0.827-1.817-0.802c-0.801,0.033-1.545,0.443-1.945,1.07
					c-0.721,1.128-0.401,2.786,0.713,3.696C45.401,377.007,46.23,377.275,47.102,377.275z"/>
			</g>
			<g>
				<path style="fill:#453248;" d="M52.465,355.698h25.518c0.359,0,0.65-0.291,0.65-0.65c0-0.359-0.291-0.65-0.65-0.65H52.465
					c-0.359,0-0.65,0.291-0.65,0.65C51.816,355.407,52.106,355.698,52.465,355.698z"/>
			</g>
			<g>
				<path style="fill:#453248;" d="M101.106,377.275c0.426,0,0.86-0.063,1.287-0.195c0.993-0.305,1.936-0.935,2.883-1.926
					c2.998-3.147,4.33-7.977,3.657-13.255c-0.593-4.643-2.521-8.922-4.386-13.061c-0.148-0.329-0.537-0.472-0.859-0.326
					c-0.327,0.147-0.473,0.533-0.326,0.859c1.826,4.052,3.714,8.243,4.282,12.693c0.624,4.887-0.581,9.332-3.308,12.193
					c-0.789,0.826-1.549,1.344-2.323,1.582c-0.889,0.27-1.813,0.141-2.411-0.349c-0.6-0.488-0.806-1.42-0.44-1.992
					c0.171-0.269,0.527-0.454,0.903-0.469c0.142,0.003,0.516,0.011,0.728,0.29c0.218,0.285,0.626,0.34,0.911,0.124
					c0.285-0.217,0.341-0.624,0.124-0.911c-0.41-0.541-1.08-0.827-1.817-0.802c-0.799,0.033-1.545,0.443-1.945,1.068
					c-0.721,1.13-0.401,2.789,0.713,3.698C99.405,377.006,100.235,377.275,101.106,377.275z"/>
			</g>
			<g>
				<path style="fill:#453248;" d="M130.421,377.242c0.457,0,0.928-0.1,1.378-0.305c1.075-0.486,1.731-1.45,1.713-2.515
					c-0.019-1.029-0.7-2.011-1.658-2.387c-0.334-0.129-0.711,0.033-0.842,0.368c-0.131,0.334,0.034,0.71,0.368,0.842
					c0.473,0.185,0.825,0.69,0.834,1.199c0.014,0.809-0.723,1.207-0.95,1.309c-0.547,0.249-1.327,0.293-1.833-0.166
					c-0.797-0.723-0.854-2.038-0.641-3.027c0.14-0.652,0.377-1.283,0.628-1.949c0.211-0.558,0.429-1.135,0.589-1.738
					c0.982-3.706-0.6-7.968-3.764-10.134c-3.162-2.166-7.709-2.102-10.809,0.156c-0.291,0.211-0.354,0.618-0.143,0.907
					c0.212,0.292,0.618,0.354,0.907,0.143c2.671-1.944,6.588-2,9.312-0.136c2.725,1.866,4.088,5.538,3.242,8.73
					c-0.142,0.538-0.34,1.059-0.548,1.613c-0.257,0.681-0.524,1.387-0.684,2.135c-0.373,1.738,0.015,3.332,1.039,4.261
					C129.057,377.006,129.722,377.242,130.421,377.242z"/>
			</g>
			<g>
				<path style="fill:#453248;" d="M80.515,378.405c0.455,0,0.926-0.099,1.377-0.303c1.075-0.487,1.731-1.45,1.713-2.515
					c-0.019-1.03-0.7-2.012-1.658-2.388c-0.331-0.131-0.709,0.034-0.842,0.368c-0.131,0.334,0.034,0.711,0.368,0.842
					c0.473,0.185,0.825,0.69,0.834,1.2c0.014,0.808-0.723,1.205-0.95,1.308c-0.548,0.247-1.327,0.292-1.833-0.166
					c-0.794-0.723-0.853-2.038-0.641-3.027c0.14-0.652,0.377-1.283,0.628-1.949c0.211-0.558,0.429-1.136,0.589-1.738
					c0.982-3.706-0.6-7.968-3.764-10.134c-3.162-2.166-7.708-2.101-10.809,0.157c-0.291,0.212-0.354,0.618-0.143,0.907
					c0.211,0.291,0.618,0.354,0.907,0.143c2.671-1.945,6.586-2.002,9.312-0.136c2.725,1.865,4.088,5.537,3.242,8.729
					c-0.142,0.538-0.34,1.059-0.548,1.613c-0.257,0.681-0.524,1.387-0.684,2.135c-0.37,1.74,0.018,3.332,1.039,4.26
					C79.15,378.169,79.815,378.405,80.515,378.405z"/>
			</g>
			<g>
				<g>
					<path style="fill:#AC6E00;" d="M67.132,361.569H64.22c0,0,0.514-6.971-4.112-9.909c-4.626-2.939-15.762,1.687-19.017-0.883
						c-3.255-2.57-0.514-20.562-1.371-21.16c-0.857-0.598-2.399-1.455-2.399-1.455l0.01-3.337l12.338-0.898
						c0,0,25.343,28.221,24.658,28.735C73.643,353.176,67.132,361.569,67.132,361.569z"/>
				</g>
				<g>
					<g>
						<path style="fill:#C1872B;" d="M59.594,348.616c-9.252-3.835-15.762,1.99-18.161-2.122
							c-2.399-4.112,2.398-17.982-0.685-20.813c-0.362-0.332-1.573-0.616-3.416-0.857l-0.01-0.101
							c1.713-1.211,65.789-1.872,68.873,0.958c3.084,2.83-1.713,16.701,0.685,20.813c2.399,4.112,8.909-1.713,18.161,2.122
							s7.538,12.953,7.538,12.953H67.132C67.132,361.569,68.845,352.451,59.594,348.616z"/>
					</g>
				</g>
				<g>
					<g>
						<path style="fill:#C1872B;" d="M41.433,346.494c-0.311-0.534-0.497-1.237-0.599-2.054l65.511,0.368
							c0.063,0.374,0.151,0.714,0.257,1.03l-65.04,0.827C41.521,346.603,41.472,346.56,41.433,346.494z"/>
					</g>
					<g>
						<path style="fill:#AC6E00;" d="M63.415,350.976l67.418,2.266c0.354,0.547,0.638,1.101,0.874,1.651l-65.399,0.155
							C65.733,353.661,64.835,352.237,63.415,350.976z"/>
					</g>
					<g>
						<path style="fill:#C1872B;" d="M66.307,355.048l65.399-0.155c1.473,3.432,0.873,6.676,0.873,6.676H67.132
							C67.132,361.569,67.703,358.422,66.307,355.048z"/>
					</g>
					<g>
						<path style="fill:#AC6E00;" d="M41.562,346.665l65.04-0.827c0.072,0.215,0.155,0.415,0.252,0.595L59.551,348.6
							C50.472,344.863,44.049,350.392,41.562,346.665z"/>
					</g>
					<g>
						<path style="fill:#C1872B;" d="M106.746,336.086L41.164,337.2c0.244-2.095,0.521-4.226,0.62-6.101l65.374,1.024
							C107.058,333.388,106.907,334.728,106.746,336.086z"/>
					</g>
					<g>
						<path style="fill:#AC6E00;" d="M41.599,327.398l65.652,1.716c0.035,0.908-0.007,1.927-0.092,3.008l-65.374-1.024
							C41.859,329.67,41.825,328.4,41.599,327.398z"/>
					</g>
					<g>
						<path style="fill:#AC6E00;" d="M106.551,337.758l-65.756,3.31c0.073-1.224,0.215-2.539,0.37-3.868l65.582-1.114
							C106.68,336.644,106.613,337.203,106.551,337.758z"/>
					</g>
				</g>
			</g>
			<g>
				<path style="fill:#453248;" d="M77.983,375.108c0.104,0,0.209-0.025,0.307-0.077c0.316-0.17,0.435-0.563,0.265-0.879
					c-1.217-2.266-3.856-3.649-6.41-3.372c-1.06,0.116-2.036,0.486-2.982,0.844c-0.393,0.15-0.787,0.298-1.184,0.427
					c-1.514,0.492-2.715,0.486-3.582-0.014c-0.114-0.067-0.223-0.15-0.324-0.246c0.02-0.03,0.041-0.06,0.06-0.09
					c0.575-0.925,0.598-2.359-0.359-3.16c-0.247-0.208-0.613-0.203-0.853,0.015c-0.576,0.521-0.844,1.275-0.754,2.125
					c0.034,0.325,0.122,0.645,0.251,0.947c-0.35,0.238-0.752,0.396-1.087,0.497c-2.39,0.713-5.226-0.201-6.746-2.175
					c-0.22-0.282-0.625-0.335-0.912-0.118c-0.284,0.22-0.336,0.628-0.118,0.912c1.869,2.422,5.215,3.503,8.149,2.624
					c0.561-0.167,1.043-0.389,1.446-0.664c0.181,0.178,0.381,0.334,0.596,0.457c1.198,0.695,2.756,0.736,4.632,0.126
					c0.417-0.136,0.83-0.292,1.242-0.448c0.91-0.344,1.769-0.67,2.665-0.768c2.043-0.222,4.15,0.884,5.123,2.695
					C77.527,374.983,77.752,375.108,77.983,375.108z"/>
			</g>
			<g>
				<path style="fill:#453248;" d="M106.006,374.087c-0.312-0.176-0.423-0.572-0.246-0.886c0.178-0.313,0.575-0.421,0.886-0.246
					c0.911,0.516,2.234,0.449,3.541-0.181c0.769-0.368,1.467-0.863,2.206-1.388c0.443-0.315,0.887-0.628,1.346-0.916
					c1.642-1.029,3.162-1.425,4.526-1.185c0.968,0.171,1.882,0.763,2.442,1.578c0.028,0.041,0.055,0.08,0.08,0.121
					c2.674-0.712,5.71,0.094,7.644,2.101c0.249,0.258,0.241,0.67-0.018,0.919c-0.258,0.247-0.669,0.242-0.919-0.018
					c-1.585-1.644-4.046-2.323-6.259-1.776c0.038,0.287,0.031,0.575-0.024,0.856c-0.107,0.556-0.472,1.078-0.932,1.332
					c-0.358,0.197-0.756,0.228-1.119,0.085c-0.345-0.136-0.609-0.415-0.745-0.785c-0.156-0.425-0.122-0.915,0.09-1.311
					c0.245-0.456,0.647-0.743,1.02-0.936c-0.371-0.453-0.925-0.787-1.49-0.887c-1.037-0.188-2.25,0.155-3.607,1.007
					c-0.439,0.274-0.862,0.575-1.285,0.875c-0.751,0.532-1.528,1.082-2.394,1.5c-0.911,0.436-1.826,0.656-2.677,0.656
					C107.321,374.603,106.616,374.431,106.006,374.087z M119.651,373.001c-0.055,0.102-0.03,0.247-0.028,0.271
					c0.068-0.011,0.265-0.198,0.313-0.452c0.008-0.039,0.014-0.08,0.018-0.119C119.807,372.797,119.708,372.895,119.651,373.001z"/>
			</g>
			<g>
				<path style="fill:#453248;" d="M79.526,366.489c0.003,0,0.006,0,0.009,0c5.032-0.069,49.182-0.675,50.062-0.804
					c0.355-0.053,0.601-0.383,0.549-0.737c-0.052-0.353-0.367-0.599-0.727-0.551c-1.09,0.103-33.107,0.563-49.902,0.793
					c-0.359,0.005-0.646,0.299-0.641,0.659C78.881,366.203,79.17,366.489,79.526,366.489z"/>
			</g>
		</g>
		<path style="fill:#FFFFFF;" d="M464.381,128.502c-53.08,41.08-119.123,65.147-186.187,67.85c0.122-1.517,1.344-2.834,2.762-3.386
			c1.418-0.552,3.139-0.223,4.254,0.813c0.477-1.422,2.639-2.059,4.088-1.674c-1.079-3.971,1.349-8.863,5.387-9.656
			c4.038-0.793,8.408,2.373,8.911,6.457c0.68-1.09,2.865-1.896,3.548-0.808c-2.077-4.337,0.486-11.164,4.885-13.105
			c4.4-1.941,10.18,0.405,11.983,4.863c-0.196-2.154,2.083-4.48,4.088-3.667c-4.035-1.729-5.769-7.997-3.704-11.87
			c2.065-3.874,7.659-5.32,11.343-2.933c-0.982-2.279,1.38-5.827,3.815-5.346c-2.244-5.001-0.096-11.883,4.432-14.972
			c4.528-3.09,10.967-2.806,15.455,0.342c4.488,3.148,6.93,8.83,6.558,14.299c1.093-1.94,3.072-3.128,5.271-2.774
			c2.198,0.354,4.084,2.176,4.513,4.361c-0.597-3.105,1.367-6.143,4.265-7.407c2.898-1.263,6.609-0.261,8.477,2.29
			c-0.817-5.478-0.366-11.332,2.535-16.05c2.902-4.718,8.521-7.977,13.98-7.039c-1.761-2.701-0.661-7.048,2.163-8.606
			c-5.924-1.849-9.817-8.592-9.31-14.777c0.506-6.185,4.2-11.713,8.689-15.997C426.8,99.373,447.001,114.354,464.381,128.502z"/>
	</g>
	<g>
		<g id="XMLID_162_">
			<g id="XMLID_163_">
				<g id="XMLID_164_">
					<path style="fill:#453248;" d="M217.54,99.56c3.648,2.166,5.627,5.298,8.32,8.825c9.258,12.124,14.782,31.416,8.678,46.096
						c-3.374,8.115-9.559,14.815-16.602,20.071c-10.325,7.706-24.112,12.634-36.134,8.001c-7.317-2.82-13.004-8.826-17.218-15.44
						c-11.009-17.276-10.055-42.433,5.699-56.708c8.624-7.814,20.162-11.876,31.733-13.117c4.565-0.49,9.575-0.516,13.846,1.403
						C216.46,98.959,217.017,99.249,217.54,99.56z"/>
				</g>
			</g>
		</g>
		<g>
			<path style="fill:#453248;" d="M246.029,296.069c-3.445,0-8.278-3.606-10.396-5.868c-1.595-1.703-2.164-3.012-1.739-3.999
				c0.714-1.656,6.198-3.939,9.404-5.154c3.073-1.16,8.456-2.999,10.004-2.273c0.885,0.417,1.267,1.579,1.168,3.555
				c-0.19,3.783-2.547,11.905-7.136,13.532l0,0C246.931,296.005,246.492,296.069,246.029,296.069z M252.109,280.409
				c-2.575,0-15.447,4.975-16.459,6.581c0.032,0.427,1.522,2.452,4.504,4.575c2.734,1.946,5.302,2.92,6.538,2.482
				c1.913-0.677,3.767-3.364,4.96-7.186c1.061-3.401,1.029-5.992,0.715-6.427C252.298,280.416,252.211,280.409,252.109,280.409z"/>
		</g>
		<g>
			<path style="fill:#FABB8F;" d="M241.555,282.842c-2.049-6.425-3.918-12.421-5.707-18.161
				c-6.502-20.868-12.117-38.89-21.735-61.747l8.873-3.734c9.798,23.284,15.477,41.512,22.053,62.615
				c1.783,5.721,3.645,11.697,5.689,18.097L241.555,282.842z"/>
		</g>
		<g>
			<g>
				<path style="fill:#FCE5D5;" d="M321.161,391.696c-0.143-0.828-0.375-1.649-0.357-2.489c0.02-0.931,0.355-1.852,0.198-2.785
					c-0.117-0.698-0.451-1.208-0.468-1.928c-0.02-0.849,0.236-1.194-0.331-1.915c-0.341-0.433-0.973-0.565-1.094-1.18
					c-0.16-0.815,0.904-1.506,0.727-2.317c-0.1-0.457-0.567-0.738-1.019-0.861c-0.452-0.122-0.935-0.143-1.357-0.345
					c-0.422-0.202-0.775-0.678-0.623-1.121l-0.091,0.036c0.404-1.015,0.581-2.121,0.48-3.209c-0.366-0.025-0.732-0.05-1.097-0.075
					c0.367-0.717-0.06-1.634-0.726-2.086c-0.667-0.452-1.501-0.559-2.299-0.662c-6.796-0.876-14.36-0.12-19.633-4.496
					c-2.62-2.175-5.279-4.392-7.163-7.229c-0.643-0.969-1.195-2.008-1.976-2.87c-0.82-0.905-1.889-1.61-2.477-2.681
					c-1.184-2.161,0.03-3.915,0.515-5.955c0.222-0.934-0.282-1.801,0.16-2.717c0.36-0.747,1.199-1.225,1.772-1.789
					c0.746-0.734,1.668-1.771,1.791-2.81c0.12-1.01,0.239-2.019,0.359-3.029c0.107-0.899,0.213-1.798,0.298-2.7
					c0.043-0.462,0.099-0.966,0.428-1.295c0.302-0.302,0.758-0.376,1.143-0.562c0.989-0.479,1.427-1.842,0.903-2.808
					c-1.176,0.122-2.351,0.245-3.527,0.367c-0.441,0.046-0.92,0.109-1.232,0.425c-0.311,0.316-0.373,0.803-0.634,1.162
					c-0.464,0.639-1.38,0.688-2.169,0.707c-0.79,0.019-1.393-0.135-1.673,0.604c-0.726,1.918-3.155,2.734-3.965,4.618
					c-0.547,1.271-0.233,2.76-0.635,4.085c-0.334,1.101-1.129,1.992-1.698,2.992c-0.569,1-0.957,2.505-0.324,3.466
					c-0.875,0.882-1.751,1.764-2.626,2.646c-0.199,0.201-0.41,0.423-0.448,0.703c-0.045,0.33,0.16,0.635,0.271,0.949
					c0.423,1.192-0.506,2.414-1.433,3.275c-0.927,0.861-2.008,1.831-1.975,3.096c0.026,1,0.458,1.824-0.367,2.648
					c-0.532,0.531-1.471,0.811-2.105,1.216c-1.682,1.073-3.188,2.422-4.434,3.981c-1.125,1.409-2.053,3.027-2.356,4.804
					c-0.241,1.418-0.076,2.87,0.105,4.297c0.347,2.729,0.745,5.549-0.02,8.192c-0.289,0.999-0.745,2.024-0.516,3.039
					c0.152,0.673,0.59,1.24,0.904,1.854c0.315,0.614,0.699,1.244,0.146,1.657c-0.592,0.444-0.797,1.242-0.818,1.981
					c-0.021,0.74,0.1,1.485-0.012,2.216c-0.125,0.814-0.531,1.552-0.92,2.277c-0.389,0.725-0.776,1.479-0.857,2.298
					c-0.081,0.819-0.462,1.747,0.244,2.17c-0.172,0.452,0.04,0.963,0.333,1.348c0.293,0.385,0.67,0.709,0.899,1.135
					c0.374,0.695,0.296,1.538,0.171,2.317c-0.187,1.167-0.458,2.321-0.81,3.45c-0.272,0.876-0.285,2.042,0.285,2.762
					c-0.143,1.102,0.787,2.223,1.896,2.286c0.845,1.213,2.03,2.261,3.467,2.607c1.438,0.346,3.131-0.155,3.894-1.422
					c0.652-1.082,0.53-2.447,0.335-3.694c-0.291-1.867-0.68-3.717-0.989-5.581c0.463,0.503,1.043,0.857,1.643,0.791
					c0.43-0.047,0.874-0.264,1.276-0.104c0.414,0.165,0.592,0.679,0.532,1.121c-0.06,0.442-0.298,0.836-0.496,1.235
					c-0.773,1.553-0.626,3.827-0.262,5.523c-0.592,0.856-0.776,1.982-0.486,2.982c0.29,1,0.496,2.291,1.482,2.624
					c0.473,0.16,0.498,0.824,0.351,1.302c-0.146,0.477-0.364,1.024-0.091,1.441c0.182,0.278,0.541,0.397,0.872,0.381
					c0.332-0.016,0.175,0.051,0.501-0.015c0.502-0.102,0.934,0.375,1.134,0.846c0.2,0.471,0.309,1.014,0.693,1.351
					c0.593,0.521,1.513,0.294,2.241-0.009c0.729-0.303,1.709-0.62,2.394-0.227c0.942,0.541,2.225,0.406,3.034-0.32
					c0.422-0.378,0.899-0.943,1.423-0.728c0.299,0.123,0.443,0.459,0.69,0.668c0.688,0.582,2.373-0.712,2.783-1.28
					c0.809-1.121-0.58-2.342-0.171-3.458c0.417-1.136,1.462-0.291,2.139-1.114c0.384-0.467,0.425-1.135,0.307-1.728
					c-0.119-0.593-0.376-1.15-0.529-1.735c-0.275-1.051-0.207-2.158-0.138-3.242c0.158-2.451,0.315-4.901,0.473-7.352
					c0.061-0.952,0.034-1.437,0.857-1.919c0.636,0.606,1.534,0.926,2.41,0.861c0.876-0.065,2.142-0.108,2.681-0.801
					c-0.338,0.324-0.684,0.658-0.885,1.081c-0.202,0.423-0.231,0.961,0.049,1.336c0.28,0.376,0.918,0.47,1.216,0.109
					c0.139-0.168,0.191-0.403,0.353-0.549c0.253-0.227,0.68-0.13,0.915,0.115c0.235,0.245,0.328,0.591,0.407,0.921
					c0.933,3.896,1.442,7.365,1.117,11.358c-0.554,0.704-0.712,1.7-0.402,2.54c0.217,0.59,0.635,1.079,1.022,1.575
					c1.065,1.367,1.946,2.878,2.61,4.479c1.564-0.519,2.922,0.883,4.344,1.246c1.583,0.404,3.686-0.374,5.313-0.571
					c0.519-0.063,1.041-0.124,1.541-0.273c2.231-0.664,3.676-3.269,3.058-5.513c0.956,0.172,1.891-0.547,2.295-1.43
					c0.404-0.882,0.401-1.89,0.391-2.86c-0.016-1.502-0.031-3.003-0.047-4.505c-0.015-1.465-0.029-2.945,0.281-4.376
					c0.319-1.467,0.968-2.839,1.645-4.179C320.705,400.18,321.977,396.41,321.161,391.696z"/>
			</g>
			<g style="opacity:0.37;">
				<g>
					<path style="fill:#E0C9BA;" d="M321.161,391.696c-0.143-0.828-0.375-1.649-0.357-2.489c0.02-0.931,0.355-1.852,0.198-2.785
						c-0.117-0.698-0.451-1.208-0.468-1.928c-0.02-0.849,0.236-1.194-0.331-1.915c-0.341-0.433-0.973-0.565-1.094-1.18
						c-0.16-0.815,0.904-1.506,0.727-2.317c-0.1-0.457-0.567-0.738-1.019-0.861c-0.452-0.122-0.935-0.143-1.357-0.345
						c-0.375-0.179-0.674-0.576-0.634-0.972c-2.482,1.653-5.409,2.576-8.371,2.977c-3.195,0.433-6.436,0.33-9.658,0.227
						c3.892,2.124,8.486,2.933,12.868,2.266c0.671-0.102,1.366-0.237,2.019-0.049c0.652,0.188,1.236,0.824,1.1,1.489
						c-0.114,0.556-0.672,1.149-0.311,1.586c0.212,0.257,0.601,0.233,0.925,0.31c0.722,0.171,1.186,0.923,1.26,1.662
						c0.074,0.738-0.157,1.47-0.385,2.176c-0.121,0.373-0.292,0.286-0.088,0.621c0.204,0.335,0.612,0.533,1.001,0.484
						c0.286,0.656-0.13,1.389-0.529,1.984c-0.399,0.594-0.812,1.331-0.521,1.985c0.153,0.344,0.483,0.595,0.6,0.953
						c0.202,0.622-0.295,1.224-0.605,1.8c-0.501,0.931-0.533,2.033-0.555,3.09c-1.112,1.127-2.537,2.353-2.035,3.854
						c0.21,0.629,0.711,1.173,0.721,1.835c0.016,0.965-0.974,1.611-1.386,2.484c-0.447,0.949-0.17,2.057-0.064,3.101
						c0.251,2.478-0.523,4.933-1.287,7.303c0.722,0.212,0.931,1.217,0.587,1.885c-0.344,0.669-1.037,1.072-1.694,1.439
						c-1.238,0.692-1.307,2.717-2.654,3.16c-0.46,0.151-0.957,0.015-1.439-0.022c-0.729-0.056-1.481,0.112-2.225,0.289
						c-1.334-0.483-2.541-1.194-3.487-2.278c-2.035-2.331-2.265-5.683-2.396-8.775c-0.284-6.683-0.567-13.365-0.851-20.048
						c-0.023-0.555-0.396-2.132-1.134-1.268c-0.324,0.379,0.001,1.382-0.082,1.88c-0.188,1.123-0.882,1.892-1.841,2.454
						c-1.921,1.125-4.372,1.154-6.211,2.385c-1.95,1.305-2.727,3.791-2.992,6.122c-0.236,2.078,0.595,4.304-0.858,5.807
						c-0.477,0.493-0.439,1.293-0.21,1.94c0.229,0.646,0.615,1.239,0.751,1.911c0.136,0.672-0.08,1.498-0.717,1.752
						c-0.667,0.266-1.605-0.149-2.045,0.417c-0.424,0.546,0.137,1.277,0.427,1.905c0.683,1.479-0.649,3.457-2.276,3.381
						c-1.384,0.313-2.746,1.229-3.045,2.524c0.097,0.029,0.2,0.038,0.288,0.089c0.942,0.541,2.225,0.406,3.034-0.32
						c0.422-0.378,0.899-0.943,1.423-0.728c0.299,0.123,0.443,0.459,0.69,0.668c0.688,0.582,2.373-0.712,2.783-1.28
						c0.809-1.121-0.58-2.342-0.171-3.458c0.417-1.136,1.462-0.291,2.139-1.114c0.384-0.467,0.425-1.135,0.307-1.728
						c-0.119-0.593-0.376-1.15-0.529-1.735c-0.275-1.051-0.207-2.158-0.138-3.242c0.158-2.451,0.315-4.901,0.473-7.352
						c0.061-0.952,0.034-1.437,0.857-1.919c0.636,0.606,1.534,0.926,2.41,0.861c0.876-0.065,2.142-0.108,2.681-0.801
						c-0.338,0.324-0.684,0.658-0.885,1.081c-0.202,0.423-0.231,0.961,0.049,1.336c0.28,0.376,0.918,0.47,1.216,0.109
						c0.139-0.168,0.191-0.403,0.353-0.549c0.253-0.227,0.68-0.13,0.915,0.115c0.235,0.245,0.328,0.591,0.407,0.921
						c0.933,3.896,1.442,7.365,1.117,11.358c-0.554,0.704-0.712,1.7-0.402,2.54c0.217,0.59,0.635,1.079,1.022,1.575
						c1.065,1.367,1.946,2.878,2.61,4.479c1.564-0.519,2.922,0.883,4.344,1.246c1.583,0.404,3.686-0.374,5.313-0.571
						c0.519-0.063,1.041-0.124,1.541-0.273c2.231-0.664,3.676-3.269,3.058-5.513c0.956,0.172,1.891-0.547,2.295-1.43
						c0.404-0.882,0.401-1.89,0.391-2.86c-0.016-1.502-0.031-3.003-0.047-4.505c-0.015-1.465-0.029-2.945,0.281-4.376
						c0.319-1.467,0.968-2.839,1.645-4.179C320.705,400.18,321.977,396.41,321.161,391.696z"/>
				</g>
				<g>
					<path style="fill:#E0C9BA;" d="M277.225,364.543c0.133,0.365,0.63,0.459,0.996,0.329c0.366-0.13,0.655-0.41,0.992-0.603
						c1.762-1.006,4.281,0.528,5.245,2.006c1.017,1.56,1.595,3.739,3.409,4.596c1.082-4.06-1.123-8.231-1.898-12.368
						c-0.509-0.809-0.999-1.632-1.639-2.339c-0.82-0.905-1.889-1.61-2.477-2.681c-1.184-2.161,0.03-3.915,0.515-5.955
						c0.222-0.934-0.282-1.801,0.16-2.717c0.36-0.747,1.199-1.225,1.772-1.789c0.746-0.734,1.668-1.771,1.791-2.81
						c0.12-1.01,0.239-2.019,0.359-3.029c0.107-0.899,0.213-1.798,0.298-2.7c0.043-0.462,0.099-0.966,0.428-1.295
						c0.302-0.302,0.758-0.376,1.143-0.562c0.989-0.479,1.427-1.842,0.903-2.808c-0.469,0.049-0.937,0.098-1.405,0.146
						c0.218,0.045,0.423,0.111,0.551,0.286c0.226,0.309,0.05,0.761-0.224,1.029c-0.265,0.258-0.614,0.428-0.981,0.475
						c-0.39,0.051-0.863-0.002-1.099,0.313c-0.146,0.195-0.139,0.465-0.248,0.682c-0.167,0.33-0.56,0.47-0.924,0.537
						c-0.064,0.012-0.129,0.022-0.194,0.033c-0.304,0.051-0.612,0.105-0.856,0.288c-0.907,0.678,0.514,1.513,0.466,2.231
						c-0.052,0.782-1.276,0.868-1.649,1.558c-0.236,0.437-0.053,0.981,0.193,1.414c0.246,0.432,0.56,0.857,0.59,1.353
						c0.035,0.585-0.338,1.116-0.759,1.524c-0.545,0.53-1.296,0.751-1.821,1.333c-0.377,0.417-0.622,0.992-0.508,1.542
						c0.251,1.213,0.134,1.958-0.631,2.902c-1.036,1.28-0.187,1.8-0.406,3.217c-0.082,0.529-0.458,0.88-0.755,1.293
						c-0.467,0.649-0.619,1.117-0.701,1.915c-0.124,1.2,0.173,2.131,0.282,3.314c0.072,0.78-0.049,1.603-0.491,2.249
						c-0.369,0.54-0.978,1.045-0.875,1.69c0.114,0.713,1.075,1.142,1.004,1.86C277.726,363.562,277.032,364.014,277.225,364.543z"/>
				</g>
			</g>
			<g>
				<path style="fill:#453248;" d="M318.764,375.654c0,0-0.786,1.62-2.057,2.255c-1.271,0.635-10.274,3.919-21.077,0.53
					c-10.803-3.389-10.803-13.24-10.274-14.405c0.53-1.165,4.978-4.025,4.978-4.025L318.764,375.654z"/>
			</g>
			<g>
				<path style="fill:#FCE5D5;" d="M303.732,336.178c9.85-0.477,24.785,6.196,24.943,20.336c0,0,6.196,9.612,2.145,10.486
					c0,0,0.874,2.621-0.874,1.827c0,0,0.477,1.192-0.556,1.827c-1.033,0.635-0.794-1.589-0.794-1.589s-11.518,12.472-23.116,5.799
					c0,0,0.477,2.145-1.112,1.192c-1.589-0.953-9.85,1.033-16.364-14.696c0,0-6.593,0-7.467-2.065
					c-0.874-2.065,0.556-14.537,8.42-19.224C296.821,335.384,303.732,336.178,303.732,336.178z"/>
			</g>
			<g style="opacity:0.37;">
				<path style="fill:#E0C9BA;" d="M330.198,363.252c0.171-2.334-4.143-8.644-4.938-9.04c-0.001,0-0.001,0-0.002,0
					c-0.337-0.44-0.772-0.805-1.245-1.007c-0.474-0.202-0.99-0.282-1.503-0.334c-1.655-0.167-3.361-0.039-4.935,0.477
					c-0.119,0.039-0.227,0.104-0.344,0.147c-4.479,1.813-9.767,4.481-9.661,8.028c0,0-1.052,10.267,0.145,9.91
					c1.197-0.357,1.472-1.785,2.125-1.429c0.653,0.357-0.211,2,0.609,1.714c0.82-0.286,0.862-0.524,1.412-0.309
					c0.55,0.214,0.038,1.281,0.809,0.781c0.77-0.5,0.83-1.924,1.428-1.924c0.598,0,1.197,0.5,1.414-0.357
					c0.218-0.857-0.544-4.5,0-6.143c0.243-0.732,0.491-1.268,0.777-1.715c0.329-0.107,0.62-0.327,0.766-0.641
					c-0.254,1.219,0.088,2.435,0.911,3.369c0.239,0.271,0.531,0.518,0.884,0.592c0.354,0.074,0.773-0.076,0.91-0.41
					c0.146,0.308,0.498,0.594,0.837,0.564c0.34-0.03,0.647-0.287,0.737-0.615c1.124-0.001,2.092-0.79,2.587-1.799
					c0.396-0.808,0.476-1.73,0.366-2.629c0.12,0.336,0.236,0.693,0.342,1.067c0.192,1.105,1.1,5.022-1.435,7.357
					c-2.607,2.401,0.845,1.783,1.946,1.184c-0.006,0.22,0.072,0.44,0.357,0.56c0.495,0.209,1.036-0.446,1.496-1.143
					c0.422-0.639,0.776-1.313,0.966-1.391c0.397-0.163,0,0.481,0.874,0c0.771-0.424,1.6-3.129,1.294-4.852L330.198,363.252z"/>
			</g>
			<g>
				<path style="fill:#453248;" d="M321.344,358.341c-2.302-0.173-4.042-0.701-3.368-1.272c0.673-0.57,1.737-0.719,1.839-1.23
					c0.102-0.511-1.859,1.04-2.26,0.888c-0.401-0.151-1.89-3.004-1.307-3.334c0.583-0.33,6.957-1.68,8.219-0.654
					c1.262,1.026-0.331,4.274-0.48,3.942c-0.15-0.331-0.996-1.244-0.979-0.803c0.017,0.44,0.977,1.444,0.977,1.444
					S323.163,358.478,321.344,358.341z"/>
			</g>
			<g>
				<path style="fill:#453248;" d="M307.187,351.095c0.043,0.154,0.119,0.285,0.236,0.366c0.683,0.475,1.23-0.623,1.892-0.361
					c0.644,0.257,0.333,1.541,1.01,1.69c0.341,0.075,0.641-0.247,0.779-0.567c0.459-1.064-0.089-2.449-1.152-2.91
					c-0.827-0.358-2.07-0.111-2.607,0.66C307.173,350.217,307.083,350.722,307.187,351.095z"/>
			</g>
			<g>
				<path style="fill:#453248;" d="M324.219,351.331c0.043,0.153,0.119,0.285,0.235,0.366c0.683,0.475,1.23-0.623,1.892-0.36
					c0.644,0.256,0.333,1.541,1.01,1.69c0.341,0.075,0.64-0.247,0.779-0.567c0.459-1.063-0.089-2.449-1.152-2.91
					c-0.827-0.358-2.07-0.111-2.607,0.66C324.206,350.453,324.115,350.958,324.219,351.331z"/>
			</g>
			<g>
				<path style="fill:#453248;" d="M321.709,362.669c-0.032,0-0.064-0.002-0.096-0.004c-0.528-0.053-0.916-0.523-0.865-1.053
					c0.154-1.566-0.056-3.176-0.607-4.654c-0.184-0.498,0.068-1.053,0.566-1.239c0.504-0.186,1.053,0.068,1.239,0.566
					c0.652,1.75,0.901,3.657,0.72,5.515C322.617,362.297,322.198,362.669,321.709,362.669z"/>
			</g>
			<g>
				<path style="fill:#453248;" d="M320.95,363.059c-0.784,0-1.57-0.158-2.296-0.476c-0.487-0.212-0.709-0.78-0.496-1.267
					c0.214-0.491,0.782-0.705,1.267-0.496c1.043,0.459,2.314,0.406,3.319-0.126c0.464-0.25,1.051-0.072,1.301,0.399
					c0.25,0.47,0.071,1.053-0.399,1.301C322.813,362.837,321.88,363.059,320.95,363.059z"/>
			</g>
			<g>
				<path style="fill:#E0C9BA;" d="M295.176,352.65c-0.195,0.609-0.716,1.044-1.1,1.555c-0.599,0.798-0.867,1.789-1.122,2.754
					c-0.283,1.071-0.566,2.143-0.848,3.214c-0.153,0.581-0.346,1.217-0.858,1.532c-0.78,0.479-1.754-0.053-2.643-0.272
					c-1.184-0.291-2.503,0.046-3.403,0.868c0.191,0.344,0.685,0.373,1.055,0.243c0.371-0.13,0.704-0.374,1.092-0.434
					c0.89-0.137,1.604,0.697,2.446,1.016c1.243,0.472,2.806-0.443,3.003-1.758c0.057-0.382,0.016-0.781,0.139-1.147
					c0.143-0.424,0.485-0.745,0.72-1.126c0.863-1.398,0.179-3.369,1.058-4.757c0.541-0.854,1.623-1.389,1.811-2.383
					c0.12-0.636-0.164-1.354,0.169-1.909c0.534-0.891,2.156-0.569,2.628-1.494c0.112-0.219-1.914-0.169-2.089-0.117
					c-0.495,0.146-1.147,0.441-1.513,0.824C294.815,350.209,295.533,351.533,295.176,352.65z"/>
			</g>
			<g>
				<path style="fill:#FCE5D5;" d="M299.88,339.695c0.444-2.428-1.036-5.069-3.339-5.958c1.821-0.653,4.031,0.01,5.192,1.557
					c-0.225-0.675-0.24-1.506,0.099-2.132c0.367,0.796,0.692,1.447,1.059,2.243c1.014-2.385,2.981-4.473,5.451-5.26
					c-1.804,2.04-3.023,5.29-2.475,7.957"/>
			</g>
			<g style="opacity:0.37;">
				<path style="fill:#E0C9BA;" d="M273.712,388.496c-1.415,2.585-2.55,7.514-6.221,6.202c-1.291-0.461-2.371-1.361-3.421-2.243
					c-0.524-0.441-1.08-0.932-1.223-1.602c-0.124-0.581,0.09-1.173,0.207-1.755c0.423-2.106-0.423-4.229-0.852-6.334
					c-0.727-3.574-0.244-7.269,0.241-10.883c0.2-1.488,0.412-3.014,1.135-4.329c0.977-1.775,2.753-2.94,4.461-4.031
					c0.11-0.07-1.119-0.485-1.276-0.483c-0.438,0.004-0.711,0.174-1.105,0.349c-0.925,0.411-1.807,1.097-2.563,1.76
					c-1.563,1.371-2.8,3.148-3.3,5.184c-0.287,1.172-0.331,2.387-0.373,3.593c-0.12,3.398-0.239,6.797-0.359,10.196
					c-0.038,1.088-0.076,2.183,0.085,3.26c0.142,0.947,0.437,1.895,0.306,2.843c-0.194,1.399-1.298,2.726-0.878,4.074
					c0.131,0.419,0.404,0.792,0.467,1.227c0.122,0.843-0.555,1.559-0.984,2.296c-0.632,1.087-0.702,2.446-0.274,3.625
					c-0.074,1.104,0.308,2.275,0.468,3.403c0.15,1.059,0.098,2.135,0.045,3.203c-0.05,1.022-0.101,2.044-0.151,3.066
					c-0.036,0.725-0.061,1.497,0.307,2.123c0.229,0.389,0.587,0.681,0.938,0.964c0.916,0.74,1.855,1.492,2.963,1.892
					c0.643,0.232,1.347,0.338,2.015,0.191c0.668-0.147,1.293-0.571,1.582-1.19c0.358-0.766,0.165-1.663-0.034-2.484
					c-0.325-1.341-0.65-2.682-0.976-4.022c-0.121-0.497-0.241-1.019-0.11-1.513c0.131-0.494,0.605-0.938,1.108-0.847
					c2.872,0.518,3.788,1.478,3.64,4.647c-0.16,3.432,0.416,6.897,1.678,10.093c0.392,0.991,1.133,2.126,2.19,1.986
					c-0.159-6.235-0.317-12.469-0.476-18.704c-0.065-2.563-0.118-5.717,0.709-8.164c0.294-0.869,0.699-1.715,0.792-2.628
					c0.078-0.778-0.076-1.559-0.23-2.325C274.065,390.255,273.889,389.375,273.712,388.496z"/>
			</g>
			<g>
				<path style="fill:#FFEEE3;" d="M293.301,362.638c-0.332,2.222,1.004,4.316,2.294,6.156c1.939,2.764,4.334,5.752,7.696,6.056
					c0.756-2.594,0.297-5.362,0.068-8.054c-0.229-2.693-0.154-5.618,1.451-7.792c0.822-1.113,1.975-1.925,3.063-2.779
					c0.487-0.382,1.018-0.927,0.855-1.524c-0.12-0.438-0.567-0.688-0.977-0.882c-2.549-1.205-7.618-3.93-9.676-0.718
					c-0.925,1.444-1.045,3.212-2.032,4.689C295.01,359.334,293.588,360.719,293.301,362.638z"/>
			</g>
			<g>
				<path style="fill:#FFEEE3;" d="M298.644,346.041c-1.477-0.334-3.118,0.203-4.112,1.346c-0.587,0.675-0.952,1.528-1.586,2.159
					c-0.852,0.849-2.072,1.19-3.235,1.499c-1.452,0.386-2.905,0.772-4.358,1.158c-0.349,0.093-0.723,0.185-1.066,0.073
					c-0.674-0.221-0.873-1.081-0.84-1.789c0.142-3.014,2.385-5.465,4.571-7.544c0.951-0.904,1.927-1.801,3.065-2.454
					c1.432-0.821,3.059-1.222,4.663-1.614c2.332-0.57,4.695-1.143,7.095-1.103c2.62,0.044,5.166,0.817,7.671,1.583
					c3.574,1.093,7.255,2.243,10.111,4.654c0.88,0.742,1.712,1.695,1.786,2.843c0.114,1.773-1.704,3.177-3.476,3.315
					c-1.771,0.137-3.472-0.619-5.113-1.299c-1.641-0.68-3.428-1.31-5.16-0.913c-1.174,0.269-2.194,0.984-3.331,1.38
					C301.741,350.583,301.561,346.701,298.644,346.041z"/>
			</g>
			<g>
				<path style="fill:#FFEEE3;" d="M265.095,369.862c0.708-2.112,2.147-4.409,4.373-4.493c2.807-0.106,4.752,3.39,7.56,3.33
					c1.456-0.031,2.825-1.05,4.259-0.795c2.511,0.445,2.97,3.886,4.212,5.728c1.048,1.553,2.452,2.922,4.193,3.615
					c0.7,0.279,1.444,0.445,2.12,0.777c0.676,0.332,1.302,0.879,1.479,1.611c0.436,1.807-2.945,2.749-4.163,3.274
					c-2.126,0.916-4.471,1.552-6.789,1.066c-2.126-0.445-4.014-1.787-6.173-2.023c-1.822-0.2-3.623,0.41-5.44,0.651
					C262.514,383.694,263.271,375.301,265.095,369.862z"/>
			</g>
		</g>
		<g>
			<g>
				<g>
					<g>
						<g>
							<g>
								<g>
									<path style="fill:#F9C19C;" d="M214.08,370.76c-1.929,0.737-3.858,1.475-5.79,2.204c-1.448,0.545-2.957,1.176-4.502,1.806
										c0.583,10.027,1.281,18.133,2.425,31.268c0.096,1.105,1.785,2.502,3.331,1.921c0.593-0.223,0.877-0.884,1.076-1.485
										c2.352-7.091,2.276-15.432,2.75-22.846C213.644,379.341,213.875,375.052,214.08,370.76z"/>
								</g>
							</g>
							<g>
								<path style="fill:#FC6262;" d="M220.761,218.83c-0.506,0.039-2.212-9.779-3.777-9.144
									c-1.183,0.879-3.855,40.215-1.673,40.215c-0.084,0-1.569,0-1.569,0c-4.128,1.872-12.978,5.154-23.876,3.411
									c-4.435-0.709-8.111-2.075-10.913-3.411c0.026-0.368,0.044-0.723,0.05-1.056c0.149-8.482-1.757-23.09-3.133-36.628
									c-0.666,0.678-1.214,1.135-1.537,1.211c-1.622,0.378-9.185-5.739-10.04-7.14c-0.762-1.254,3.722-8.315,4.883-10.53
									c2.295-4.375,6.052-7.961,10.394-10.28c5.138-2.744,10.987-3.851,16.771-3.952c8.502-0.148,14.862,1.304,21.37,6.923
									c0.167,0.144,0.334,0.291,0.501,0.441c3.595,3.217,6.662,7.101,8.628,11.507c3.647,8.176,4.601,14.849,4.601,14.849
									S225.874,218.433,220.761,218.83z"/>
							</g>
							<g>
								<g>
									<path style="fill:#F9C19C;" d="M173.917,276.315c-0.594,0.574-0.561,2.189-0.657,2.927
										c-1.602,12.308,0.231,25.94,0.871,38.308c0.967,18.693,0.9,18.037,2.471,36.689c0.713,8.458,1.489,16.911,2.423,25.348
										c0.817,7.384,1.128,15.72,3.807,22.694c0.227,0.591,0.542,1.238,1.144,1.433c1.571,0.509,3.194-0.965,3.239-2.073
										c0.564-13.914,0.891-22.196,0.99-33.054c0.185-20.056,1.723-20.774,2.08-40.828c0.137-7.701-1.828-15.154-1.037-22.816
										c0.27-2.612-0.108-7.6,1.34-9.934"/>
								</g>
							</g>
							<g>
								<g id="XMLID_745_">
									<g id="XMLID_767_">
										<g id="XMLID_772_">
											<g id="XMLID_773_">
												<g id="XMLID_774_">
													<g id="XMLID_775_">
														<g>
															<g>
																<path style="fill:#FABB8F;" d="M205.555,185.721c-0.137-2.831-9.753-4.667-9.753-4.667s-9.395,2.754-9.258,5.584
																	c0.136,2.831,4.256,11.046,9.506,10.792C201.299,197.178,205.691,188.552,205.555,185.721z"/>
															</g>
														</g>
													</g>
												</g>
											</g>
										</g>
									</g>
								</g>
							</g>
						</g>
					</g>
					<g>
						<path style="fill:#407597;" d="M227.792,269.075c-1.604-10.089-4.859-17.423-12.907-23.657
							c-0.002,5.314-35.997,7.025-35.997-0.101c-4.735,5.129-10.134,8.599-12.218,15.518c-2.016,6.692-2.527,13.762-2.531,20.717
							c-0.012,28.867,5.952,79.65,12.307,107.876c0.995,4.419,14.931-1.483,14.931-1.483c0.482-14.317,1.007-114.573,4.353-101.518
							c3.624,14.139,5.931,103.002,5.931,103.002c4.539,2.21,10.005,4.124,14.26,2.817
							C217.074,391.891,230.876,288.476,227.792,269.075z"/>
					</g>
					<path style="fill:none;stroke:#5C8EAF;stroke-linecap:round;stroke-linejoin:round;stroke-miterlimit:10;" d="M218.326,262.728
						c6.315,22.465,4.972,46.298,2.983,69.548c-1.579,18.457-3.533,36.88-5.486,55.302"/>
					<path style="fill:none;stroke:#5C8EAF;stroke-linecap:round;stroke-linejoin:round;stroke-miterlimit:10;" d="M213.958,258.627
						c-0.183,1.484,0.922,2.905,2.297,3.493s2.945,0.501,4.415,0.226"/>
					<path style="fill:none;stroke:#5C8EAF;stroke-linecap:round;stroke-linejoin:round;stroke-miterlimit:10;" d="M191.309,261.272
						c-0.044,5.714-0.087,11.428-0.131,17.143c-0.01,1.334,0.048,2.836,1.027,3.743c0.994,0.921,2.524,0.846,3.872,0.714"/>
					<path style="fill:none;stroke:#5C8EAF;stroke-linecap:round;stroke-linejoin:round;stroke-miterlimit:10;" d="M197.199,287.777
						c0.551-6.578,0.805-13.181,0.762-19.782"/>
					<path style="fill:none;stroke:#5C8EAF;stroke-linecap:round;stroke-linejoin:round;stroke-miterlimit:10;" d="M170.3,266.833
						c1.868-0.294,3.601-1.368,4.696-2.911s1.535-3.534,1.195-5.394"/>
					<path style="fill:none;stroke:#5C8EAF;stroke-linecap:round;stroke-linejoin:round;stroke-miterlimit:10;" d="M171.582,269.409
						c-0.566,10.791-1.123,21.599-0.847,32.409c0.268,10.511,1.017,21.058,1.842,31.545c1.28,16.26,3.351,32.457,6.204,48.516"/>
				</g>
			</g>
			<g>
				<g id="XMLID_156_">
					<g id="XMLID_157_">
						<g>
							<path style="fill:#FC6262;" d="M161.244,412.604c0.143,7.885,29.366,3.983,30.137,1.129
								c0.771-2.854-1.061-19.739-2.481-20.483c-1.42-0.744-11.111-0.195-11.858,1.397c-0.747,1.591-0.902,9.744-0.902,9.744
								S161.127,406.148,161.244,412.604z"/>
						</g>
					</g>
				</g>
				<g id="XMLID_153_">
					<g id="XMLID_154_">
						<g id="XMLID_155_">
							<g>
								<path style="fill:#2C2A3F;" d="M190.207,411.011c-0.849,0.466-1.821,0.648-2.773,0.823
									c-7.752,1.425-9.453,2.294-17.288,1.437c-1.233-0.135-2.485-0.335-3.585-0.909c-1.099-0.574-2.035-1.585-2.226-2.811
									c-0.05-0.319-0.034-0.649,0.034-0.969c-1.901,1.111-3.153,2.441-3.125,4.021c0.143,7.885,29.366,3.983,30.137,1.129
									c0.181-0.671,0.217-2.122,0.15-3.952C191.219,410.294,190.738,410.719,190.207,411.011z"/>
							</g>
						</g>
					</g>
				</g>
				<g id="XMLID_150_">
					<g id="XMLID_151_">
						<g id="XMLID_152_">
							<g>
								<path style="fill:#2C2A3F;" d="M185.286,406.44c0.501,0.667,1.186,1.226,1.995,1.431c0.888,0.225,1.844,0.001,2.647-0.44
									c0.529-0.291,0.996-0.685,1.388-1.143c-0.191-2.333-0.479-4.849-0.814-7.046c-0.136-0.092-0.272-0.184-0.419-0.259
									C185.28,396.5,182.762,403.073,185.286,406.44z"/>
							</g>
						</g>
					</g>
				</g>
				<g id="XMLID_148_">
					<g id="XMLID_149_">
						<g>
							<path style="fill:#2C2A3F;" d="M172.77,404.96c-0.497-0.208-1.101-0.404-1.261-0.918c-0.103-0.332,0.033-0.706,0.278-0.951
								c0.245-0.246,0.582-0.381,0.921-0.455c1.102-0.241,2.293,0.119,3.154,0.848c0.732,0.619,2.852,4.108,0.966,4.365
								C175.427,408.041,173.988,405.47,172.77,404.96z"/>
						</g>
					</g>
				</g>
				<g id="XMLID_146_">
					<g id="XMLID_147_">
						<g>
							<path style="fill:#2C2A3F;" d="M174.495,402.035c-0.497-0.208-1.101-0.403-1.261-0.918c-0.103-0.332,0.033-0.706,0.278-0.952
								c0.245-0.246,0.582-0.381,0.921-0.455c1.102-0.24,2.293,0.12,3.154,0.848c0.732,0.62,2.852,4.108,0.966,4.365
								C177.152,405.116,175.712,402.545,174.495,402.035z"/>
						</g>
					</g>
				</g>
				<g id="XMLID_144_">
					<g id="XMLID_145_">
						<g>
							<path style="fill:#2C2A3F;" d="M175.165,398.777c-0.537-0.04-1.172-0.033-1.487-0.47c-0.203-0.282-0.193-0.679-0.039-0.991
								c0.154-0.311,0.431-0.546,0.729-0.724c0.968-0.578,2.212-0.615,3.26-0.198c0.891,0.355,4.009,2.988,2.303,3.832
								C178.663,400.854,176.481,398.874,175.165,398.777z"/>
						</g>
					</g>
				</g>
			</g>
			<g>
				<g id="XMLID_142_">
					<g id="XMLID_143_">
						<g>
							<path style="fill:#FC6262;" d="M232.906,414.801c0.444,7.874-28.988,6.157-29.97,3.369c-0.981-2.789-0.41-19.764,0.95-20.611
								c1.361-0.848,11.066-1.021,11.929,0.511c0.863,1.532,1.624,9.65,1.624,9.65S232.543,408.355,232.906,414.801z"/>
						</g>
					</g>
				</g>
				<g id="XMLID_139_">
					<g id="XMLID_140_">
						<g id="XMLID_141_">
							<g>
								<path style="fill:#2C2A3F;" d="M203.906,415.367c0.882,0.402,1.864,0.51,2.827,0.614c7.837,0.845,9.598,1.584,17.347,0.147
									c1.219-0.226,2.454-0.518,3.507-1.173c1.053-0.654,1.911-1.732,2.011-2.968c0.026-0.322-0.014-0.65-0.106-0.964
									c1.978,0.967,3.326,2.2,3.415,3.777c0.444,7.874-28.988,6.157-29.97,3.369c-0.23-0.656-0.374-2.101-0.443-3.93
									C202.843,414.728,203.354,415.116,203.906,415.367z"/>
							</g>
						</g>
					</g>
				</g>
				<g id="XMLID_134_">
					<g id="XMLID_135_">
						<g id="XMLID_138_">
							<g>
								<path style="fill:#2C2A3F;" d="M208.473,410.443c-0.45,0.703-1.091,1.311-1.883,1.575c-0.869,0.29-1.839,0.138-2.673-0.242
									c-0.549-0.25-1.044-0.609-1.47-1.037c0.017-2.341,0.117-4.871,0.288-7.087c0.129-0.102,0.258-0.203,0.398-0.29
									C207.739,400.53,210.739,406.897,208.473,410.443z"/>
							</g>
						</g>
					</g>
				</g>
				<g id="XMLID_95_">
					<g id="XMLID_115_">
						<g>
							<path style="fill:#2C2A3F;" d="M220.844,408.036c0.48-0.245,1.068-0.484,1.189-1.009c0.078-0.339-0.086-0.701-0.348-0.928
								c-0.263-0.227-0.609-0.337-0.953-0.385c-1.117-0.158-2.278,0.29-3.082,1.08c-0.684,0.672-2.538,4.308-0.639,4.425
								C218.423,411.306,219.668,408.635,220.844,408.036z"/>
						</g>
					</g>
				</g>
				<g id="XMLID_81_">
					<g id="XMLID_88_">
						<g>
							<path style="fill:#2C2A3F;" d="M218.906,405.247c0.48-0.245,1.068-0.484,1.189-1.009c0.078-0.339-0.085-0.701-0.348-0.928
								c-0.263-0.227-0.609-0.336-0.953-0.385c-1.117-0.158-2.278,0.29-3.082,1.08c-0.684,0.672-2.539,4.308-0.639,4.425
								C216.485,408.517,217.73,405.846,218.906,405.247z"/>
						</g>
					</g>
				</g>
				<g id="XMLID_60_">
					<g id="XMLID_80_">
						<g>
							<path style="fill:#2C2A3F;" d="M217.995,402.049c0.533-0.08,1.166-0.12,1.448-0.579c0.182-0.296,0.142-0.692-0.035-0.991
								c-0.177-0.299-0.471-0.512-0.781-0.668c-1.009-0.504-2.252-0.449-3.266,0.045c-0.862,0.42-3.776,3.278-2.012,3.993
								C214.662,404.38,216.69,402.243,217.995,402.049z"/>
						</g>
					</g>
				</g>
			</g>
			<g>
				<path style="fill:#5C8EAF;" d="M178.908,243.902c0.087,2.802,36.318,5.839,35.671-3.035c0,0,2.34,4.076,1.406,5.436
					c-0.934,1.36-13.653,11.026-39.473,1.436c-0.043-0.204-0.29-1.491,0.564-2.634C177.731,244.227,178.634,243.969,178.908,243.902
					z"/>
			</g>
		</g>
		<g>
			<g id="XMLID_28_">
				<g id="XMLID_30_">
					<g id="XMLID_117_">
						<g id="XMLID_133_">
							<g id="XMLID_136_">
								<g id="XMLID_137_">
									<path style="fill:#FABB8F;" d="M197.13,187.398c0.027-0.001,0.054-0.002,0.081-0.002c2.193-0.057,3.976-1.77,4.005-3.964
										l0.219-16.871c-2.074,0.082-4.148,0.163-6.222,0.245c-3.528,0.139-2.104,6.032-2.106,8.54l-0.007,8.031
										C193.097,185.602,194.905,187.462,197.13,187.398z"/>
								</g>
							</g>
						</g>
						<g id="XMLID_130_">
							<g id="XMLID_131_">
								<g id="XMLID_132_">
									<path style="fill:#FBA278;" d="M165.822,148.361c1.12,8.158,4.594,16.314,11.063,21.409
										c6.914,5.446,16.324,6.718,25.083,5.853c7.373-0.728,14.986-3.059,19.977-8.534c7.913-8.682,6.863-22.004,5.325-33.65
										c-0.862-6.532-1.883-13.44-6.08-18.519c-4.392-5.315-11.494-7.606-18.344-8.394c-6.797-0.783-13.852-0.31-20.175,2.303
										C166.177,115.646,163.634,132.417,165.822,148.361z"/>
								</g>
							</g>
						</g>
						<g id="XMLID_127_">
							<g id="XMLID_128_">
								<g id="XMLID_129_">
									<path style="fill:#FABB8F;" d="M175.308,160.441c-9.341-14.27-6.269-36.269,7.443-46.698
										c6.976-5.306,16.654-7.192,24.852-4.089c9.302,3.52,12.346,10.982,14.167,19.875c2.036,9.943,4.676,18.385-0.286,28.175
										c-6.411,12.651-24.258,18.087-36.762,11.376C180.936,167.048,177.66,164.036,175.308,160.441z"/>
								</g>
							</g>
						</g>
						<g>
							<g>
								<path style="fill:#453248;" d="M200.308,148.501c-0.48,0-0.896-0.358-0.955-0.847c-0.064-0.527,0.312-1.008,0.84-1.072
									c0.748-0.09,1.597-0.193,2.184-0.578c0.436-0.288,0.698-0.829,0.56-1.159c-0.118-0.282-0.553-0.471-0.981-0.436
									c-0.469,0.047-0.982,0.311-1.568,0.808c-0.292,0.244-0.699,0.296-1.042,0.133c-0.343-0.166-0.556-0.519-0.542-0.9
									l0.218-6.425c0.018-0.531,0.487-0.957,0.995-0.929c0.531,0.018,0.948,0.462,0.929,0.995l-0.157,4.639
									c0.325-0.125,0.65-0.203,0.977-0.236c1.291-0.132,2.499,0.534,2.948,1.609c0.569,1.359-0.234,2.823-1.278,3.511
									c-0.965,0.634-2.099,0.771-3.011,0.882C200.385,148.499,200.346,148.501,200.308,148.501z"/>
							</g>
							<g>
								<path style="fill:#453248;" d="M196.56,158.097c-0.896,0-1.775-0.359-2.375-0.974c-1.044-1.072-1.342-2.837-0.745-4.394
									c0.094-0.243,0.282-0.439,0.522-0.541c0.241-0.103,0.511-0.102,0.752-0.001c2.835,1.199,6.223,1.205,9.063,0.018
									c0.492-0.204,1.055,0.026,1.26,0.517c0.205,0.491-0.026,1.055-0.517,1.26c-2.997,1.252-6.383,1.38-9.46,0.386
									c-0.002,0.552,0.173,1.07,0.505,1.411c0.25,0.257,0.65,0.406,1.05,0.391c0.179-0.008,0.511-0.056,0.723-0.31
									c0.339-0.406,0.948-0.465,1.356-0.124c0.409,0.34,0.465,0.947,0.124,1.356c-0.509,0.613-1.265,0.968-2.126,1.002
									C196.647,158.096,196.604,158.097,196.56,158.097z"/>
							</g>
							<g id="XMLID_123_">
								<g id="XMLID_124_">
									<g id="XMLID_125_">
										<g id="XMLID_126_">
											<path style="fill:#453248;" d="M181.281,141.215c1.119,0.075,2.032,1.039,2.561,1.968c0.27,0.474,0.393,1.061,0.195,1.57
												c-0.197,0.508-0.775,0.88-1.299,0.729c-0.632-0.182-1.037-1.011-1.688-0.919c-0.495,0.07-0.753,0.647-1.21,0.851
												c-0.463,0.207-1.043-0.048-1.305-0.482c-0.263-0.434-0.251-0.99-0.09-1.471
												C178.866,142.212,179.883,141.122,181.281,141.215z"/>
										</g>
									</g>
								</g>
							</g>
							<g id="XMLID_119_">
								<g id="XMLID_120_">
									<g id="XMLID_121_">
										<g id="XMLID_122_">
											<path style="fill:#453248;" d="M212.399,141.286c0.518,0.018,1.047,0.197,1.532,0.572c0.724,0.56,1.234,1.47,1.237,2.398
												c0.001,0.277-0.046,0.566-0.208,0.792c-0.162,0.225-0.462,0.367-0.725,0.281c-0.482-0.158-0.544-0.9-1.016-1.086
												c-0.377-0.148-0.783,0.152-1.014,0.485s-0.399,0.734-0.744,0.946c-0.448,0.274-1.074,0.11-1.425-0.281
												c-0.351-0.391-0.462-0.95-0.421-1.474C209.742,142.325,211.027,141.238,212.399,141.286z"/>
										</g>
									</g>
								</g>
							</g>
						</g>
					</g>
				</g>
			</g>
			<g>
				<path style="fill:#453248;" d="M177.059,139.327c-0.441,0.277-1.014,0.544-1.455,0.266c-0.535-0.337-0.403-1.15-0.141-1.726
					c0.815-1.793,2.266-3.291,4.042-4.146c0.367-0.177,0.794-0.223,1.194-0.144C184.56,134.337,177.92,138.785,177.059,139.327z"/>
			</g>
			<g>
				<path style="fill:#453248;" d="M215.739,139.327c0.441,0.277,1.013,0.544,1.455,0.266c0.535-0.337,0.403-1.15,0.141-1.726
					c-0.815-1.793-2.266-3.291-4.042-4.146c-0.367-0.177-0.794-0.223-1.194-0.144C208.238,134.337,214.877,138.785,215.739,139.327z
					"/>
			</g>
		</g>
		<g>
			<path style="fill:#5C8EAF;" d="M174.573,389.428c0.546,2.508,12.702,3.336,18.422-1.801c0-0.848-0.469-7.149-0.946-7.467
				c-0.477-0.318-11.811,2.753-17.745-1.166C174.303,378.994,173.1,382.662,174.573,389.428z"/>
		</g>
		<g>
			<path style="fill:#5C8EAF;" d="M218.266,393.656c-0.546,2.508-12.702,3.336-18.422-1.801c0-0.848,0.469-7.149,0.946-7.467
				c0.477-0.318,11.811,2.753,17.745-1.166C218.535,383.222,219.739,386.89,218.266,393.656z"/>
		</g>
		<g>
			<g id="XMLID_158_">
				<g id="XMLID_159_">
					<path style="fill:#FABB8F;" d="M242.404,288.727c-0.566,0.091-1.134,0.169-1.699,0.245c-0.652,0.087-1.315,0.173-1.965,0.068
						c-2.714-0.435-0.325-3.862-2.339-4.547c-0.833-0.283-1.103,0.842-2.152-0.227c-0.72-0.733-0.434-1.972,0.025-2.889
						c1.497-2.992,4.252-6.517,7.496-6.98c2.476-0.354,5.399-0.654,7.486,1.454c0.732,0.74,0.998,1.818,1.216,2.841
						c0.373,1.755,1.085,3.51,0.344,5.211c-0.708,1.623-2.352,2.856-3.915,3.576C245.482,288.133,243.952,288.478,242.404,288.727z"
						/>
				</g>
			</g>
		</g>
		<g>
			<g id="XMLID_160_">
				<g id="XMLID_161_">
					<path style="fill:#FABB8F;" d="M160.459,293.887c1.571,1.036,3.546,1.415,5.272,0.694c2.504-1.046,2.955-3.212,4.812-4.736
						c2.926-2.402,1.766,1.868,4.465,1.462c1.005-0.151,1.495-1.306,1.661-2.308c0.539-3.268-0.377-6.561-2.708-8.867
						c-1.779-1.76-4.106-6.131-7.005-5.706c-1.017,0.149-1.858,0.846-2.627,1.528c-2.239,1.985-4.415,4.14-5.753,6.816
						c-1.339,2.676-1.729,5.978-0.365,8.641C158.72,292.409,159.517,293.266,160.459,293.887z"/>
				</g>
			</g>
		</g>
		<g>
			<path style="fill:#FABB8F;" d="M163.018,281.195c-10.2-29.995-6.127-63.854,10.897-90.572l8.119,5.173
				c-15.238,23.916-19.031,55.452-9.902,82.301L163.018,281.195z"/>
		</g>
		<g>
			<path style="fill:#FC6262;" d="M172.542,190.964c-6.08,7.124-12.276,22.218-11.958,22.853c0.318,0.636,11.365,5.561,11.958,5.561
				c0.593,0,7.425-14.207,7.425-14.207s5.878-11.849,4.449-13.437l-10.454-2.223"/>
		</g>
		<g>
			<path style="fill:#453248;" d="M284.968,364.644c-25.156-15.993-32.737-46.102-37.266-64.094
				c-0.488-1.94-0.945-3.753-1.387-5.409l1.395-0.372c0.444,1.662,0.902,3.482,1.392,5.43c4.477,17.781,11.969,47.543,36.64,63.227
				L284.968,364.644z"/>
		</g>
		<g id="XMLID_165_">
			<g id="XMLID_166_">
				<g id="XMLID_167_">
					<path style="fill:#453248;" d="M230.927,117.117c1.538,2.327,2.839,5.284,1.688,7.826c-1.066,2.356-3.923,3.423-6.507,3.327
						c-2.584-0.096-5.035-1.092-7.531-1.767c-7.444-2.012-15.358-1.166-22.926,0.316c-8.018,1.57-16.243,4.027-22.155,9.666
						c-5.912,5.639-7.187,27.654-2.923,34.624c-8.351-13.652-11.216-44.848-0.48-56.716
						C185.394,97.48,218.152,97.789,230.927,117.117z"/>
				</g>
			</g>
		</g>
		<g>
			<path style="fill:#453248;" d="M170.536,181.131c0.607,0.248,1.3,0.178,1.926,0.376c1.887,0.598,2.199,3.074,2.331,5.049
				c0.554,8.317,4.676,16.986,12.303,20.347c2.336,1.029,4.876,1.511,7.19,2.594c2.314,1.083,3.737,2.896,3.953,5.536
				c0.018,0.225,0.028,0.456,0.12,0.662c0.092,0.206,0.291,0.383,0.516,0.371c0.277-0.014,0.461-0.287,0.583-0.536
				c0.924-1.878,0.722-4.413,0.738-6.481c0.018-2.412-0.241-4.826-0.765-7.18c-1.033-4.648-3.101-9.076-6.103-12.78
				c-3.483-4.298-8.036-7.576-12.532-10.8c-2.183-1.566-7.01-5.334-9.928-3.735C168.952,175.604,168.18,180.166,170.536,181.131z"/>
		</g>
		<g id="XMLID_168_">
			<g id="XMLID_169_">
				<g id="XMLID_170_">
					<path style="fill:#453248;" d="M230.756,164.426c-0.833,5.454-2.024,10.806-3.551,15.986
						c0.132-10.119,1.601-21.411,0.382-31.532c-0.835-6.928-6.038-14.406-3.157-21.432c4.097-9.745,7.666,12.63,7.729,15.563
						C232.311,150.217,231.829,157.405,230.756,164.426z"/>
				</g>
			</g>
		</g>
	</g>
</g>
</svg>
